<?xml version="1.0" encoding="UTF-8"?> <svg xmlns="http://www.w3.org/2000/svg" width="103.518" height="109.472" viewBox="0 0 103.518 109.472"><defs><style>.a{fill:#e2e2e2;}.b,.c{fill:none;stroke:#359e6a;stroke-miterlimit:10;stroke-width:2px;}.c{stroke-linecap:round;stroke-linejoin:round;}</style></defs><g transform="translate(-919.908 -4595.277)"><g transform="translate(-563.617 3081.109)"><g transform="translate(0 -47)"><g transform="translate(0 -123.082)"><g transform="translate(-10.083 14)"><g transform="translate(0 -1403.437)"><g transform="translate(144.116 -2332.167)"><g transform="translate(1096.579 2660.958)"><g transform="translate(-432.143 -239.732)"><g transform="translate(580.669 2658.795)"><g transform="translate(104.386 325.834)"><path class="a" d="M121.425,319.861a2.277,2.277,0,1,1-2.276,2.278A2.278,2.278,0,0,1,121.425,319.861Z" transform="translate(-89.096 -317.261)"></path><path class="a" d="M108.73,344.069a4.346,4.346,0,1,1-4.344,4.346A4.347,4.347,0,0,1,108.73,344.069Z" transform="translate(-104.386 -292.189)"></path><path class="a" d="M117.9,344.069a4.346,4.346,0,1,1-4.346,4.346A4.345,4.345,0,0,1,117.9,344.069Z" transform="translate(-94.895 -292.189)"></path><circle class="a" cx="4.604" cy="4.604" r="4.604" transform="translate(9.069 32.966)"></circle><circle class="a" cx="3.104" cy="3.104" r="3.104" transform="translate(12.069 4.876)"></circle><circle class="a" cx="1.914" cy="1.914" r="1.914" transform="translate(21.087 17.001)"></circle><circle class="a" cx="1.914" cy="1.914" r="1.914" transform="translate(28.212 28.197)"></circle><path class="a" d="M126.191,326.58a2.638,2.638,0,1,1-2.638,2.638A2.638,2.638,0,0,1,126.191,326.58Z" transform="translate(-84.535 -310.303)"></path><path class="a" d="M124.191,346.58a2.638,2.638,0,1,1-2.638,2.638A2.638,2.638,0,0,1,124.191,346.58Z" transform="translate(-86.606 -289.588)"></path><path class="a" d="M120.4,318.584a.259.259,0,1,1-.259.259A.259.259,0,0,1,120.4,318.584Z" transform="translate(-88.07 -318.584)"></path></g><g transform="translate(149.171 311.584)"><path class="a" d="M130.73,337.069a4.346,4.346,0,1,1-4.344,4.346A4.347,4.347,0,0,1,130.73,337.069Z" transform="translate(-126.386 -285.189)"></path><path class="a" d="M150.112,336.053a6.415,6.415,0,1,1-6.414,6.414A6.415,6.415,0,0,1,150.112,336.053Z" transform="translate(-108.456 -286.241)"></path><circle class="a" cx="4.604" cy="4.604" r="4.604" transform="translate(9.069 32.966)"></circle><circle class="a" cx="1.914" cy="1.914" r="1.914" transform="translate(2.431 17.001)"></circle><circle class="a" cx="1.914" cy="1.914" r="1.914" transform="translate(27.194 23.108)"></circle><circle class="a" cx="1.914" cy="1.914" r="1.914" transform="translate(23.122 49.572)"></circle><circle class="a" cx="1.914" cy="1.914" r="1.914" transform="translate(12.944 21.072)"></circle><path class="a" d="M149.191,321.58a2.638,2.638,0,1,1-2.638,2.638A2.638,2.638,0,0,1,149.191,321.58Z" transform="translate(-111.311 -289.286)"></path></g><g transform="translate(152.948 389.315)"><path class="a" d="M150.075,359.291a4.345,4.345,0,1,1,4.346-4.346A4.345,4.345,0,0,1,150.075,359.291Z" transform="translate(-110.127 -348.905)"></path><path class="a" d="M140.911,359.291a4.345,4.345,0,1,1,4.346-4.346A4.345,4.345,0,0,1,140.911,359.291Z" transform="translate(-119.618 -348.905)"></path><circle class="a" cx="4.604" cy="4.604" r="4.604" transform="translate(26.017 20.092)"></circle><path class="a" d="M137.382,371.578a6.414,6.414,0,1,1,6.414-6.414A6.415,6.415,0,0,1,137.382,371.578Z" transform="translate(-125.417 -340.466)"></path><circle class="a" cx="1.914" cy="1.914" r="1.914" transform="translate(19.38 41.438)"></circle><path class="a" d="M130.879,375.044a2.638,2.638,0,1,1,2.638-2.638A2.638,2.638,0,0,1,130.879,375.044Z" transform="translate(-128.241 -329.054)"></path><path class="a" d="M131.879,355.044a2.638,2.638,0,1,1,2.638-2.638A2.638,2.638,0,0,1,131.879,355.044Z" transform="translate(-127.205 -349.768)"></path></g><g transform="translate(104.386 351.361)"><path class="a" d="M130.125,366.457a1.655,1.655,0,1,1,1.655-1.655A1.655,1.655,0,0,1,130.125,366.457Z" transform="translate(-79.442 -297.957)"></path><path class="a" d="M147.125,349.457a1.655,1.655,0,1,1,1.655-1.655A1.655,1.655,0,0,1,147.125,349.457Z" transform="translate(-61.835 -315.564)"></path><path class="a" d="M114.277,371.394a2.276,2.276,0,1,1,2.276-2.276A2.277,2.277,0,0,1,114.277,371.394Z" transform="translate(-96.499 -294.13)"></path><path class="a" d="M155.277,349.394a2.276,2.276,0,1,1,2.276-2.276A2.277,2.277,0,0,1,155.277,349.394Z" transform="translate(-54.035 -316.915)"></path><path class="a" d="M118.911,366.291a4.345,4.345,0,1,1,4.346-4.346A4.345,4.345,0,0,1,118.911,366.291Z" transform="translate(-93.841 -303.701)"></path><path class="a" d="M110.8,369.415A6.415,6.415,0,1,1,117.215,363,6.416,6.416,0,0,1,110.8,369.415Z" transform="translate(-104.386 -304.754)"></path><circle class="a" cx="4.604" cy="4.604" r="4.604" transform="translate(29.794 72.297)"></circle><circle class="a" cx="1.914" cy="1.914" r="1.914" transform="translate(37.74 57)"></circle><circle class="a" cx="1.914" cy="1.914" r="1.914" transform="translate(94.071 1)"></circle><circle class="a" cx="1.914" cy="1.914" r="1.914" transform="translate(31.299 40.714)"></circle><path class="a" d="M112.879,356.044a2.638,2.638,0,1,1,2.638-2.638A2.638,2.638,0,0,1,112.879,356.044Z" transform="translate(-98.322 -310.778)"></path><path class="a" d="M152.879,364.044a2.638,2.638,0,1,1,2.638-2.638A2.638,2.638,0,0,1,152.879,364.044Z" transform="translate(-56.894 -302.492)"></path></g></g></g></g></g></g></g></g></g></g><g transform="translate(940.894 4620.626)"><g transform="translate(0.6 0.374)"><path class="b" d="M35.323,8.6l-3.694,1.478a1.124,1.124,0,0,1-1.478,0,1.624,1.624,0,0,1-.369-1.847L30.89,4.533V3.056L29.782,1.948,24.98.47a2.1,2.1,0,0,0-2.586,1.478L21.286,5.642a1.919,1.919,0,0,1-1.478.739c-.739,0-1.108,0-1.478-.739L16.484,2.317A1.908,1.908,0,0,0,13.9,1.209L9.465,3.425A2.327,2.327,0,0,0,8.357,6.38L10.2,9.7a.914.914,0,0,1-.369,1.478c-.369.739-.739.739-1.478.739L4.663,10.813a1.7,1.7,0,0,0-2.586,1.108L.6,16.723V18.2l1.108,1.108L5.4,20.417c.739.369,1.108.739,1.108,1.478a1.919,1.919,0,0,1-.739,1.478L2.078,24.85a2,2,0,0,0-.739,2.955l2.216,4.433A2.327,2.327,0,0,0,6.51,33.346L9.835,31.5a.914.914,0,0,1,1.478.369c.369.369.739,1.108.369,1.478L10.574,37.04v1.478l1.108,1.108,4.8,1.478a2.1,2.1,0,0,0,2.586-1.478l1.478-3.694c0-.369.369-.739,1.108-.739a1.919,1.919,0,0,1,1.478.739l1.847,3.325a2.327,2.327,0,0,0,2.955,1.108l4.433-2.216a2.327,2.327,0,0,0,1.108-2.955L31.26,31.869c-.369-.739,0-1.108.369-1.478s1.108-.739,1.478-.369L36.8,31.13a2.1,2.1,0,0,0,2.586-1.478l1.478-4.8V23.372l-1.108-1.108-3.694-1.108c-.739-.369-1.108-.739-1.108-1.478a1.919,1.919,0,0,1,.739-1.478l3.325-1.847A2.327,2.327,0,0,0,40.125,13.4L37.909,8.966A1.723,1.723,0,0,0,35.323,8.6Zm3.694,5.91" transform="translate(-0.6 -0.374)"></path><path class="c" d="M7.942,4.618a6.837,6.837,0,0,0-2.955,9.235c1.478,3.325,5.91,4.8,9.235,3.325a6.837,6.837,0,0,0,2.955-9.235c-1.478-3.325-5.91-4.8-9.235-3.325ZM13.483,15.7" transform="translate(9.05 9.515)"></path></g><g transform="translate(33.008 32.14)"><path class="b" d="M35.329,23.478l-2.586-.739A.794.794,0,0,1,32,22a1.357,1.357,0,0,1,.369-1.108l2.216-1.108a.794.794,0,0,0,.739-.739V17.937l-1.478-2.955c-.369-.739-1.108-.739-1.847-.739l-2.216,1.108c-.369.369-.739,0-1.108,0a1.357,1.357,0,0,1-.369-1.108l.739-2.586c.369-.739-.369-1.478-1.108-1.847l-2.955-.739c-.739-.369-1.478.369-1.847,1.108l-.369,2.586a.794.794,0,0,1-.739.739,1.357,1.357,0,0,1-1.108-.369l-1.108-2.216c-.369-.739-1.108-.739-1.847-.739l-2.955,1.478a.794.794,0,0,0-.739.739V13.5l1.108,2.216c.369.369,0,.739,0,1.108a1.357,1.357,0,0,1-1.108.369l-2.216-.739c-.739-.369-1.478.369-1.847,1.108l-.739,2.955C9.1,21.262,9.841,22,10.58,22.37l2.586.739a.794.794,0,0,1,.739.739,1.357,1.357,0,0,1-.369,1.108l-2.216,1.108a.794.794,0,0,0-.739.739v1.108l1.478,2.955c.369.739,1.108.739,1.847.739L16.121,30.5c.369-.369.739,0,1.108,0A1.357,1.357,0,0,1,17.6,31.6L16.86,34.19c-.369.739.369,1.478,1.108,1.847l2.955.739c.739.369,1.478-.369,1.847-1.108l.739-2.586a.794.794,0,0,1,.739-.739,1.357,1.357,0,0,1,1.108.369l1.108,2.216c.369.739,1.108.739,1.847.739l2.955-1.478A.794.794,0,0,0,32,33.452V32.343l-1.847-2.586c-.369-.369,0-.739,0-1.108a1.357,1.357,0,0,1,1.108-.369l2.586.739c.739.369,1.478-.369,1.847-1.108l.739-2.955a1.979,1.979,0,0,0-1.108-1.478Zm-1.108,4.433" transform="translate(-9.373 -8.973)"></path><path class="c" d="M17.481,11.74A4.6,4.6,0,0,0,11.94,14.7,4.6,4.6,0,0,0,14.9,20.236a4.6,4.6,0,0,0,5.541-2.955c1.108-2.586-.369-4.8-2.955-5.541ZM15.265,19.5" transform="translate(-2.976 -2.038)"></path></g></g></g></svg> 