<?xml version="1.0" encoding="UTF-8"?> <svg xmlns="http://www.w3.org/2000/svg" width="103.518" height="109.472" viewBox="0 0 103.518 109.472"><defs><style>.a{fill:#e2e2e2;}.b,.c{fill:#fff;}.b,.c,.d{stroke:#2fa46c;stroke-linecap:round;stroke-linejoin:round;stroke-width:2px;}.b{stroke-miterlimit:10;}.c,.d{stroke-miterlimit:10;}.d{fill:none;}</style></defs><g transform="translate(-336.741 -6163.278)"><g transform="translate(-1140.389)"><g transform="translate(-6.394 4649.109)"><g transform="translate(0 -47)"><g transform="translate(0 -123.082)"><g transform="translate(-10.083 14)"><g transform="translate(0 -1403.437)"><g transform="translate(144.116 -2332.167)"><g transform="translate(1096.579 2660.958)"><g transform="translate(-432.143 -239.732)"><g transform="translate(580.669 2658.795)"><g transform="translate(104.386 325.834)"><path class="a" d="M121.425,319.861a2.277,2.277,0,1,1-2.276,2.278A2.278,2.278,0,0,1,121.425,319.861Z" transform="translate(-89.096 -317.261)"></path><path class="a" d="M108.73,344.069a4.346,4.346,0,1,1-4.344,4.346A4.347,4.347,0,0,1,108.73,344.069Z" transform="translate(-104.386 -292.189)"></path><path class="a" d="M117.9,344.069a4.346,4.346,0,1,1-4.346,4.346A4.345,4.345,0,0,1,117.9,344.069Z" transform="translate(-94.895 -292.189)"></path><circle class="a" cx="4.604" cy="4.604" r="4.604" transform="translate(9.069 32.966)"></circle><circle class="a" cx="3.104" cy="3.104" r="3.104" transform="translate(12.069 4.876)"></circle><circle class="a" cx="1.914" cy="1.914" r="1.914" transform="translate(21.087 17.001)"></circle><circle class="a" cx="1.914" cy="1.914" r="1.914" transform="translate(28.212 28.197)"></circle><path class="a" d="M126.191,326.58a2.638,2.638,0,1,1-2.638,2.638A2.638,2.638,0,0,1,126.191,326.58Z" transform="translate(-84.535 -310.303)"></path><path class="a" d="M124.191,346.58a2.638,2.638,0,1,1-2.638,2.638A2.638,2.638,0,0,1,124.191,346.58Z" transform="translate(-86.606 -289.588)"></path><path class="a" d="M120.4,318.584a.259.259,0,1,1-.259.259A.259.259,0,0,1,120.4,318.584Z" transform="translate(-88.07 -318.584)"></path></g><g transform="translate(149.171 311.584)"><path class="a" d="M130.73,337.069a4.346,4.346,0,1,1-4.344,4.346A4.347,4.347,0,0,1,130.73,337.069Z" transform="translate(-126.386 -285.189)"></path><path class="a" d="M150.112,336.053a6.415,6.415,0,1,1-6.414,6.414A6.415,6.415,0,0,1,150.112,336.053Z" transform="translate(-108.456 -286.241)"></path><circle class="a" cx="4.604" cy="4.604" r="4.604" transform="translate(9.069 32.966)"></circle><circle class="a" cx="1.914" cy="1.914" r="1.914" transform="translate(2.431 17.001)"></circle><circle class="a" cx="1.914" cy="1.914" r="1.914" transform="translate(27.194 23.108)"></circle><circle class="a" cx="1.914" cy="1.914" r="1.914" transform="translate(23.122 49.572)"></circle><circle class="a" cx="1.914" cy="1.914" r="1.914" transform="translate(12.944 21.072)"></circle><path class="a" d="M149.191,321.58a2.638,2.638,0,1,1-2.638,2.638A2.638,2.638,0,0,1,149.191,321.58Z" transform="translate(-111.311 -289.286)"></path></g><g transform="translate(152.948 389.315)"><path class="a" d="M150.075,359.291a4.345,4.345,0,1,1,4.346-4.346A4.345,4.345,0,0,1,150.075,359.291Z" transform="translate(-110.127 -348.905)"></path><path class="a" d="M140.911,359.291a4.345,4.345,0,1,1,4.346-4.346A4.345,4.345,0,0,1,140.911,359.291Z" transform="translate(-119.618 -348.905)"></path><circle class="a" cx="4.604" cy="4.604" r="4.604" transform="translate(26.017 20.092)"></circle><path class="a" d="M137.382,371.578a6.414,6.414,0,1,1,6.414-6.414A6.415,6.415,0,0,1,137.382,371.578Z" transform="translate(-125.417 -340.466)"></path><circle class="a" cx="1.914" cy="1.914" r="1.914" transform="translate(19.38 41.438)"></circle><path class="a" d="M130.879,375.044a2.638,2.638,0,1,1,2.638-2.638A2.638,2.638,0,0,1,130.879,375.044Z" transform="translate(-128.241 -329.054)"></path><path class="a" d="M131.879,355.044a2.638,2.638,0,1,1,2.638-2.638A2.638,2.638,0,0,1,131.879,355.044Z" transform="translate(-127.205 -349.768)"></path></g><g transform="translate(104.386 351.361)"><path class="a" d="M130.125,366.457a1.655,1.655,0,1,1,1.655-1.655A1.655,1.655,0,0,1,130.125,366.457Z" transform="translate(-79.442 -297.957)"></path><path class="a" d="M147.125,349.457a1.655,1.655,0,1,1,1.655-1.655A1.655,1.655,0,0,1,147.125,349.457Z" transform="translate(-61.835 -315.564)"></path><path class="a" d="M114.277,371.394a2.276,2.276,0,1,1,2.276-2.276A2.277,2.277,0,0,1,114.277,371.394Z" transform="translate(-96.499 -294.13)"></path><path class="a" d="M155.277,349.394a2.276,2.276,0,1,1,2.276-2.276A2.277,2.277,0,0,1,155.277,349.394Z" transform="translate(-54.035 -316.915)"></path><path class="a" d="M118.911,366.291a4.345,4.345,0,1,1,4.346-4.346A4.345,4.345,0,0,1,118.911,366.291Z" transform="translate(-93.841 -303.701)"></path><path class="a" d="M110.8,369.415A6.415,6.415,0,1,1,117.215,363,6.416,6.416,0,0,1,110.8,369.415Z" transform="translate(-104.386 -304.754)"></path><circle class="a" cx="4.604" cy="4.604" r="4.604" transform="translate(29.794 72.297)"></circle><circle class="a" cx="1.914" cy="1.914" r="1.914" transform="translate(37.74 57)"></circle><circle class="a" cx="1.914" cy="1.914" r="1.914" transform="translate(94.071 1)"></circle><circle class="a" cx="1.914" cy="1.914" r="1.914" transform="translate(31.299 40.714)"></circle><path class="a" d="M112.879,356.044a2.638,2.638,0,1,1,2.638-2.638A2.638,2.638,0,0,1,112.879,356.044Z" transform="translate(-98.322 -310.778)"></path><path class="a" d="M152.879,364.044a2.638,2.638,0,1,1,2.638-2.638A2.638,2.638,0,0,1,152.879,364.044Z" transform="translate(-56.894 -302.492)"></path></g></g></g></g></g></g></g></g></g></g></g><g transform="translate(344.5 6177.538)"><rect class="b" width="8.8" height="18.8" transform="matrix(0.866, -0.5, 0.5, 0.866, 46.702, 60.644)"></rect><circle class="c" cx="22.9" cy="22.9" r="22.9" transform="translate(18.1 16)"></circle><rect class="d" width="5.4" height="11.6" transform="translate(51.7 37.4)"></rect><rect class="c" width="5.6" height="14" transform="translate(25.1 34.9)"></rect><rect class="c" width="5.5" height="23.2" transform="translate(34 25.8)"></rect><rect class="c" width="5.8" height="17.3" transform="translate(42.7 31.7)"></rect></g></g></svg> 